# xmcd
#
# Track frame offsets:
#	150
#	17754
#	34997
#	48271
#	63433
#	76301
#	90937
#	104693
#	119580
#	135403
#	150579
#	164360
#	178401
#	193737
#	211067
#	226536
#	240938
#	258225
#	273280
#	286840
#	299833
#	317590
#
# Disc length: 4417 seconds
#
# Revision: 0
# Processed by: cddbd v1.5.2PL0 Copyright (c) Steve Scherf et al.
# Submitted via: EasyCDDAExtractor 16.0.9.1
#
DISCID=2e113f16
DTITLE=Nu Country Traxx Volume 192 US
DYEAR=2015
DGENRE=country
TTITLE0=Blake Shelton\n - Sangria\n
TTITLE1=Jason Aldean\n - Tonight Looks Good On You\n
TTITLE2=Luke Bryan\n - Games\n
TTITLE3=Jana Kramer\n - I Got The Boy\n
TTITLE4=Lady Antebellum\n - Long Stretch Of Love\n
TTITLE5=Emerson Drive\n - Who We Are\n
TTITLE6=RaeLynn\n - For A Boy\n
TTITLE7=Kacey Musgraves\n - Biscuits\n
TTITLE8=LoCash\n - I Love This Life\n
TTITLE9=Cam\n - My Mistake\n
TTITLE10=Gwen Sebastian\n - Throw It Back\n
TTITLE11=Chase Bryant\n - Little Bit Of You\n
TTITLE12=Tyler Steel\n - Every One Of You\n
TTITLE13=Paul Brandt\n - Nothing\n
TTITLE14=Blackberry Smoke\n - Living In The Song\n
TTITLE15=Rachele Lynae\n - Whole Lotta Nothin'\n
TTITLE16=Brothers Osborne\n - Stay A Little Longer\n
TTITLE17=Casey James\n - Fall Apart\n
TTITLE18=Jake Mathews\n - Road and the Radio\n
TTITLE19=SaraBeth\n - I'm Sick Of It\n
TTITLE20=Outshyne\n - Moonlight Crush\n
TTITLE21=Elvis Carden\n - Life (Out There Somewhere]\n
EXTD=
EXTT0=
EXTT1=
EXTT2=
EXTT3=
EXTT4=
EXTT5=
EXTT6=
EXTT7=
EXTT8=
EXTT9=
EXTT10=
EXTT11=
EXTT12=
EXTT13=
EXTT14=
EXTT15=
EXTT16=
EXTT17=
EXTT18=
EXTT19=
EXTT20=
EXTT21=
PLAYORDER=
